# xmcd
#
# Track frame offsets:
#	150
#	14637
#	29595
#	42925
#	55962
#	67730
#	78785
#	91860
#	106750
#	120762
#	138280
#	155207
#	170620
#	186810
#	202982
#	216497
#
# Disc length: 3097 seconds
# Revision: 2
# Processed by: cddbd v1.5.2PL0 Copyright (c) Steve Scherf et al.
# Submitted via: dBpowerAMP V12.0
#
DISCID=d30c1710
DTITLE=Sylvia - RCA Country Legends Sylvia
DYEAR=1980
DGENRE=Folk, World, and Country
TTITLE0=Tumbleweed
TTITLE1=Nobody
TTITLE2=Cry Baby Cry
TTITLE3=No News is Good News
TTITLE4=Anytime, Anyplace
TTITLE5=Drifter
TTITLE6=Tonight I'm Gettin' Friendly With the Blues
TTITLE7=So Complete
TTITLE8=True Blue
TTITLE9=Eyes Like Mine
TTITLE10=Come to Me
TTITLE11=Makes You Wanna Slow Down
TTITLE12=I Never Quite Got Back (From Loving You)
TTITLE13=Bobby's In Vicksburg
TTITLE14=Cry Just a Little Bit
TTITLE15=The Boy Gets Around
EXTD=
EXTT0=
EXTT1=
EXTT2=
EXTT3=
EXTT4=
EXTT5=
EXTT6=
EXTT7=
EXTT8=
EXTT9=
EXTT10=
EXTT11=
EXTT12=
EXTT13=
EXTT14=
EXTT15=
PLAYORDER=
